<svg width="20" height="20" viewBox="0 0 20 20" fill="none" xmlns="http://www.w3.org/2000/svg">
<g clip-path="url(#clip0)">
<path d="M10 0C8.02219 0 6.08879 0.58649 4.4443 1.6853C2.79981 2.78412 1.51809 4.3459 0.761209 6.17317C0.00433281 8.00043 -0.1937 10.0111 0.192152 11.9509C0.578004 13.8907 1.53041 15.6725 2.92894 17.0711C4.32746 18.4696 6.10929 19.422 8.0491 19.8079C9.98891 20.1937 11.9996 19.9957 13.8268 19.2388C15.6541 18.4819 17.2159 17.2002 18.3147 15.5557C19.4135 13.9112 20 11.9778 20 10C20 7.34784 18.9464 4.8043 17.0711 2.92893C15.1957 1.05357 12.6522 0 10 0ZM10 18.6625C8.28672 18.6625 6.61192 18.1545 5.18738 17.2026C3.76284 16.2508 2.65254 14.8979 1.9969 13.315C1.34125 11.7321 1.16971 9.99039 1.50395 8.31003C1.8382 6.62967 2.66322 5.08616 3.87469 3.87469C5.08616 2.66322 6.62967 1.83819 8.31003 1.50395C9.9904 1.1697 11.7321 1.34125 13.315 1.99689C14.8979 2.65254 16.2508 3.76283 17.2026 5.18737C18.1545 6.61191 18.6625 8.28672 18.6625 10C18.6592 12.2964 17.7455 14.4978 16.1217 16.1217C14.4978 17.7455 12.2964 18.6592 10 18.6625Z" fill="#0076CE"/>
<path d="M9.2 4.2H10.8V5.8H9.2V4.2Z" fill="#0076CE"/>
<path d="M9.2 7.8H10.8V15.8H9.2V7.8Z" fill="#0076CE"/>
</g>
<defs>
<clipPath id="clip0">
<rect width="20" height="20" fill="white"/>
</clipPath>
</defs>
</svg>
