<svg width="20" height="20" viewBox="0 0 20 20" fill="none" xmlns="http://www.w3.org/2000/svg">
<g clip-path="url(#clip0)">
<path d="M10 1.3375C11.7133 1.3375 13.3881 1.84555 14.8126 2.79739C16.2372 3.74924 17.3475 5.10214 18.0031 6.685C18.6588 8.26787 18.8303 10.0096 18.4961 11.69C18.1618 13.3703 17.3368 14.9138 16.1253 16.1253C14.9138 17.3368 13.3703 18.1618 11.69 18.4961C10.0096 18.8303 8.26787 18.6588 6.68501 18.0031C5.10214 17.3475 3.74925 16.2372 2.7974 14.8126C1.84555 13.3881 1.3375 11.7133 1.3375 10C1.34081 7.70358 2.25453 5.50216 3.87834 3.87834C5.50216 2.25452 7.70358 1.34081 10 1.3375ZM10 0C8.02219 0 6.08879 0.58649 4.4443 1.6853C2.79981 2.78412 1.51809 4.3459 0.761209 6.17317C0.00433281 8.00043 -0.1937 10.0111 0.192152 11.9509C0.578004 13.8907 1.53041 15.6725 2.92894 17.0711C4.32746 18.4696 6.10929 19.422 8.0491 19.8079C9.98891 20.1937 11.9996 19.9957 13.8268 19.2388C15.6541 18.4819 17.2159 17.2002 18.3147 15.5557C19.4135 13.9112 20 11.9778 20 10C20 7.34784 18.9464 4.8043 17.0711 2.92893C15.1957 1.05357 12.6522 0 10 0Z" fill="#0076CE"/>
<path d="M15.45 11.3625H9.3125V2.775H10.65V10H15.45V11.3625Z" fill="#0076CE"/>
</g>
<defs>
<clipPath id="clip0">
<rect width="20" height="20" fill="white"/>
</clipPath>
</defs>
</svg>
