<svg xmlns="http://www.w3.org/2000/svg" width="40" height="40" viewBox="0 0 40 40"><defs><style>.a{fill:#fff;}</style></defs><path class="a" d="M20.3.3a20,20,0,1,0,20,20,20.117,20.117,0,0,0-20-20Zm0,37.962A17.962,17.962,0,1,1,38.262,20.3,17.941,17.941,0,0,1,20.3,38.262ZM35.841,22.975v1.783H30.236v-8.79h2.038v7.006ZM9.727,24.631a4.253,4.253,0,0,0,4.2-3.312L18.9,25.141l4.968-3.822v3.312h5.605V22.848H25.778V15.841H23.739v3.312l-4.713,3.822-1.019-.892L20.3,20.3l2.42-1.911-1.4-1.146-4.713,3.694-1.019-.892L20.3,16.478l-1.4-1.146-4.968,3.822a4.36,4.36,0,0,0-4.2-3.312H6.16v8.79H9.727ZM8.071,22.975v-5.35H9.6A2.566,2.566,0,0,1,12.02,20.3,2.562,2.562,0,0,1,9.6,22.975H8.071Z" transform="translate(-0.3 -0.3)"/></svg>