<svg width="20" height="20" viewBox="0 0 20 20" fill="none" xmlns="http://www.w3.org/2000/svg">
<path d="M19.999 19.073L13.377 12.45C14.4891 11.0587 15.0962 9.3312 15.099 7.55004C15.1108 6.55528 14.9236 5.56821 14.5484 4.64687C14.1731 3.72553 13.6174 2.88853 12.914 2.18508C12.2105 1.48163 11.3735 0.925949 10.4522 0.550705C9.53085 0.175461 8.54378 -0.0117652 7.54902 3.68872e-05C6.54738 0.00337487 5.55635 0.205332 4.63328 0.594221C3.71021 0.98311 2.87343 1.55121 2.17137 2.26564C1.46931 2.98006 0.915909 3.82664 0.5432 4.75636C0.17049 5.68608 -0.0141303 6.68049 2.39777e-05 7.68204C-0.000501806 8.67353 0.1944 9.65541 0.573586 10.5715C0.952773 11.4877 1.50881 12.3201 2.2099 13.0212C2.911 13.7223 3.7434 14.2783 4.65952 14.6575C5.57565 15.0367 6.55753 15.2316 7.54902 15.231C9.35598 15.2433 11.1028 14.5824 12.449 13.377L19.072 20L19.999 19.073ZM7.54902 13.907C6.73129 13.908 5.9214 13.7476 5.16573 13.4351C4.41006 13.1226 3.72346 12.6641 3.14523 12.0858C2.567 11.5076 2.10851 10.821 1.796 10.0653C1.48349 9.30966 1.3231 8.49977 1.32402 7.68204C1.31721 6.01674 1.96671 4.41579 3.13185 3.22595C4.29698 2.03611 5.88395 1.35316 7.54902 1.32504C8.36676 1.32412 9.17665 1.4845 9.93232 1.79701C10.688 2.10952 11.3746 2.56801 11.9528 3.14624C12.531 3.72447 12.9895 4.41108 13.3021 5.16674C13.6146 5.92241 13.7749 6.7323 13.774 7.55004C13.7808 9.21534 13.1313 10.8163 11.9662 12.0061C10.8011 13.196 9.2141 13.8789 7.54902 13.907Z" fill="#006BBD"/>
</svg>
